<?xml version="1.0" standalone="no"?>
<!DOCTYPE svg PUBLIC "-//W3C//DTD SVG 20010904//EN"
 "http://www.w3.org/TR/2001/REC-SVG-20010904/DTD/svg10.dtd">
<svg version="1.0" xmlns="http://www.w3.org/2000/svg"
 width="500.000000pt" height="222.000000pt" viewBox="0 0 500.000000 222.000000"
 preserveAspectRatio="xMidYMid meet">
<metadata>
Created by potrace 1.16, written by Peter Selinger 2001-2019
</metadata>
<g transform="translate(0.000000,222.000000) scale(0.100000,-0.100000)"
fill="#000000" stroke="none">
<path d="M2265 2156 c-398 -77 -703 -336 -838 -713 -77 -212 -77 -478 -1 -706
l26 -77 -31 -36 c-34 -39 -54 -81 -65 -135 -3 -21 -18 -53 -31 -73 -27 -40
-21 -46 17 -16 l26 20 6 -42 c4 -23 15 -61 26 -85 l19 -43 -45 -19 c-77 -34
-47 -83 68 -112 35 -9 48 -18 48 -31 0 -9 8 -33 17 -53 l17 -35 936 0 937 0
19 23 c11 12 25 33 31 48 9 21 21 27 73 37 83 15 155 51 155 77 0 28 -63 60
-161 81 l-83 17 19 26 c10 15 22 42 27 61 l9 35 92 -4 c107 -4 122 4 121 58 0
29 -2 32 -9 16 -5 -11 -9 -15 -9 -9 -1 6 -11 24 -23 40 -13 15 -30 59 -40 97
-20 78 -52 139 -93 177 l-28 25 13 -25 c11 -22 11 -23 -3 -10 -13 13 -13 25 5
105 28 132 20 361 -16 495 -103 374 -393 663 -768 766 -116 32 -350 42 -463
20z m338 -57 c159 -23 326 -92 452 -186 l77 -58 -98 -6 c-55 -4 -133 -10 -174
-15 -75 -8 -75 -8 -30 -15 25 -4 116 -10 203 -14 l157 -8 39 -46 c135 -162
222 -371 238 -570 l6 -78 -44 -10 -44 -10 44 -8 44 -8 -6 -81 c-4 -45 -11 -98
-17 -119 -11 -37 -12 -38 -48 -31 -70 11 -72 13 -72 53 0 49 -28 76 -81 76
-27 0 -46 -7 -61 -23 l-22 -22 -26 48 c-36 67 -88 91 -208 97 -64 3 -107 -1
-143 -11 -28 -9 -52 -14 -54 -12 -1 2 -9 24 -18 49 -10 33 -12 50 -5 57 14 14
-15 21 -128 31 l-89 8 80 2 c68 2 76 4 55 13 -15 7 -91 11 -185 11 -128 1
-182 -4 -268 -22 -60 -12 -111 -20 -114 -18 -2 3 16 31 41 62 62 75 95 144
104 212 7 54 32 88 32 44 0 -11 9 -25 20 -31 11 -6 20 -16 20 -24 0 -12 44
-56 57 -56 3 0 3 27 0 60 -7 64 -25 109 -61 150 -12 14 -14 19 -4 11 9 -7 26
-10 36 -7 13 4 22 1 26 -9 3 -10 15 -16 28 -14 13 1 30 -1 38 -4 8 -3 33 -8
54 -11 l40 -5 -54 54 c-62 63 -103 80 -171 72 -47 -6 -66 4 -34 17 8 3 15 13
15 23 0 10 9 24 20 31 12 7 18 16 15 21 -2 5 2 14 11 22 8 7 20 21 26 32 10
19 8 20 -26 14 -55 -9 -93 -41 -113 -97 -16 -45 -18 -47 -31 -29 -16 23 -84
59 -112 59 -19 0 -19 -1 -2 -19 9 -10 32 -36 49 -58 18 -22 36 -43 40 -47 4
-4 -5 -2 -20 3 -40 15 -92 14 -135 -5 -38 -15 -96 -65 -113 -96 -8 -15 -4 -16
28 -12 21 3 45 8 53 11 8 3 25 5 38 4 12 -1 25 4 28 13 4 11 14 14 29 10 13
-3 26 -1 29 5 4 6 12 11 18 11 6 0 2 -10 -10 -23 -34 -36 -52 -92 -52 -159 1
-52 3 -60 12 -43 6 11 20 26 30 33 10 7 18 17 18 23 0 5 9 18 20 29 12 12 18
25 15 30 -7 11 32 33 45 25 18 -11 11 -41 -25 -113 -41 -81 -122 -163 -227
-229 l-67 -42 7 32 c9 41 8 132 -2 177 -5 22 -4 30 2 22 9 -14 102 -64 102
-56 0 3 -7 19 -16 37 -22 43 -54 77 -72 77 -22 0 -6 12 20 16 32 4 59 11 87
21 23 9 23 10 -18 26 -55 22 -89 21 -130 -4 -28 -17 -33 -18 -27 -4 3 9 9 42
12 73 l6 57 -22 -20 c-30 -26 -50 -76 -43 -103 5 -20 3 -21 -26 -11 -19 7 -41
7 -57 2 l-26 -9 41 -19 c22 -11 41 -22 41 -25 0 -4 -15 -11 -33 -18 -32 -12
-65 -56 -81 -109 -7 -21 -6 -21 21 -8 16 8 37 22 48 32 50 44 50 44 50 0 0
-43 21 -107 35 -107 8 0 24 68 25 104 0 36 23 28 30 -11 8 -48 -8 -120 -39
-181 -19 -37 -34 -52 -75 -71 -27 -13 -57 -31 -66 -41 -9 -10 -23 -16 -30 -14
-21 8 -55 -59 -77 -153 -29 -124 -28 -121 -38 -103 -24 43 -53 195 -58 301
l-5 117 64 7 c71 9 59 23 -19 24 l-44 1 7 43 c20 132 69 276 128 375 l32 52
90 1 c114 1 281 23 245 32 -14 4 -76 11 -139 17 -63 6 -120 14 -128 18 -20 12
83 122 181 194 212 157 493 227 759 187z m414 -1285 c34 -104 62 -184 62 -178
1 6 -15 88 -34 183 -38 188 -39 191 -26 191 5 0 26 -70 47 -155 21 -85 39
-153 41 -152 1 2 -4 59 -13 127 -8 67 -14 132 -12 143 3 19 3 19 26 0 15 -12
28 -39 37 -76 15 -65 29 -231 16 -182 -6 20 -7 3 -4 -46 5 -63 2 -82 -13 -108
-10 -18 -27 -31 -38 -31 -41 0 -152 23 -172 35 -12 8 -37 57 -64 124 -44 112
-61 138 -40 61 6 -23 9 -44 7 -46 -6 -6 -57 169 -57 194 0 46 19 28 45 -44 15
-41 29 -73 31 -72 2 2 -6 35 -17 72 -19 63 -19 70 -4 85 22 23 27 12 60 -135
16 -68 30 -122 32 -120 2 2 -5 59 -17 127 -11 68 -22 134 -24 147 -2 12 2 22
8 22 7 0 31 -69 54 -152 45 -162 46 -151 9 55 -15 81 -20 126 -13 124 6 -2 39
-89 73 -193z m-540 -79 c84 -89 83 -300 -2 -391 -32 -34 -38 -36 -77 -31 -32
4 -50 14 -69 37 -89 106 -71 340 31 408 43 29 74 23 117 -23z"/>
<path d="M2357 701 c-72 -86 -53 -316 28 -353 109 -50 172 248 75 352 -36 39
-71 39 -103 1z"/>
</g>
</svg>
